{
    "accessors" : [
        {
            "bufferView" : 0, 
            "componentType" : 5121, 
            "count" : 336, 
            "max" : [
                239
            ], 
            "min" : [
                0
            ], 
            "type" : "SCALAR"
        }, 
        {
            "bufferView" : 1, 
            "componentType" : 5126, 
            "count" : 240, 
            "max" : [
                0.800000011920929, 
                0.800000011920929, 
                0.7999998927116394
            ], 
            "min" : [
                -0.7999998927116394, 
                -0.800000011920929, 
                -0.800000011920929
            ], 
            "type" : "VEC3"
        }, 
        {
            "bufferView" : 2, 
            "componentType" : 5126, 
            "count" : 240, 
            "max" : [
                0.9086633324623108, 
                0.9775986075401306, 
                0.9086633324623108
            ], 
            "min" : [
                -0.9086633920669556, 
                -0.9775986075401306, 
                -0.9086633920669556
            ], 
            "type" : "VEC3"
        }, 
        {
            "bufferView" : 3, 
            "componentType" : 5121, 
            "count" : 102, 
            "max" : [
                67
            ], 
            "min" : [
                0
            ], 
            "type" : "SCALAR"
        }, 
        {
            "bufferView" : 4, 
            "componentType" : 5126, 
            "count" : 68, 
            "max" : [
                2.7223868370056152, 
                1.0, 
                0.6516696810722351
            ], 
            "min" : [
                -2.7223870754241943, 
                -1.0, 
                -1.0000003576278687
            ], 
            "type" : "VEC3"
        }, 
        {
            "bufferView" : 5, 
            "componentType" : 5126, 
            "count" : 68, 
            "max" : [
                0.5270569324493408, 
                0.9677765369415283, 
                0.9966556429862976
            ], 
            "min" : [
                -0.527056872844696, 
                -0.9677765369415283, 
                -1.0
            ], 
            "type" : "VEC3"
        }, 
        {
            "bufferView" : 6, 
            "componentType" : 5121, 
            "count" : 336, 
            "max" : [
                239
            ], 
            "min" : [
                0
            ], 
            "type" : "SCALAR"
        }, 
        {
            "bufferView" : 7, 
            "componentType" : 5126, 
            "count" : 240, 
            "max" : [
                0.800000011920929, 
                0.800000011920929, 
                0.7999998927116394
            ], 
            "min" : [
                -0.7999998927116394, 
                -0.800000011920929, 
                -0.800000011920929
            ], 
            "type" : "VEC3"
        }, 
        {
            "bufferView" : 8, 
            "componentType" : 5126, 
            "count" : 240, 
            "max" : [
                0.9086633324623108, 
                0.9775986075401306, 
                0.9086633324623108
            ], 
            "min" : [
                -0.9086633920669556, 
                -0.9775986075401306, 
                -0.9086633920669556
            ], 
            "type" : "VEC3"
        }, 
        {
            "bufferView" : 9, 
            "componentType" : 5121, 
            "count" : 30, 
            "max" : [
                19
            ], 
            "min" : [
                0
            ], 
            "type" : "SCALAR"
        }, 
        {
            "bufferView" : 10, 
            "componentType" : 5126, 
            "count" : 20, 
            "max" : [
                0.7253825068473816, 
                0.5559151768684387, 
                1.0000005960464478
            ], 
            "min" : [
                -0.7253828048706055, 
                -0.5559151768684387, 
                0.6516689658164978
            ], 
            "type" : "VEC3"
        }, 
        {
            "bufferView" : 11, 
            "componentType" : 5126, 
            "count" : 20, 
            "max" : [
                0.9893362522125244, 
                0.6938422322273254, 
                1.0
            ], 
            "min" : [
                -0.9893361926078796, 
                -0.6938422322273254, 
                0.14564937353134155
            ], 
            "type" : "VEC3"
        }
    ], 
    "asset" : {
        "generator" : "Khronos Blender glTF 2.0 exporter", 
        "version" : "2.0"
    }, 
    "bufferViews" : [
        {
            "buffer" : 0, 
            "byteLength" : 336, 
            "byteOffset" : 0, 
            "target" : 34963
        }, 
        {
            "buffer" : 0, 
            "byteLength" : 2880, 
            "byteOffset" : 336, 
            "target" : 34962
        }, 
        {
            "buffer" : 0, 
            "byteLength" : 2880, 
            "byteOffset" : 3216, 
            "target" : 34962
        }, 
        {
            "buffer" : 0, 
            "byteLength" : 102, 
            "byteOffset" : 6096, 
            "target" : 34963
        }, 
        {
            "buffer" : 0, 
            "byteLength" : 816, 
            "byteOffset" : 6200, 
            "target" : 34962
        }, 
        {
            "buffer" : 0, 
            "byteLength" : 816, 
            "byteOffset" : 7016, 
            "target" : 34962
        }, 
        {
            "buffer" : 0, 
            "byteLength" : 336, 
            "byteOffset" : 7832, 
            "target" : 34963
        }, 
        {
            "buffer" : 0, 
            "byteLength" : 2880, 
            "byteOffset" : 8168, 
            "target" : 34962
        }, 
        {
            "buffer" : 0, 
            "byteLength" : 2880, 
            "byteOffset" : 11048, 
            "target" : 34962
        }, 
        {
            "buffer" : 0, 
            "byteLength" : 30, 
            "byteOffset" : 13928, 
            "target" : 34963
        }, 
        {
            "buffer" : 0, 
            "byteLength" : 240, 
            "byteOffset" : 13960, 
            "target" : 34962
        }, 
        {
            "buffer" : 0, 
            "byteLength" : 240, 
            "byteOffset" : 14200, 
            "target" : 34962
        }
    ], 
    "buffers" : [
        {
            "byteLength" : 14440, 
            "uri" : "miner.bin"
        }
    ], 
    "materials" : [
        {
            "emissiveFactor" : [
                0.0, 
                0.49688005447387695, 
                0.9918754696846008
            ], 
            "name" : "EngineMaterial", 
            "pbrMetallicRoughness" : {
                "roughnessFactor" : 0.831818163394928
            }
        }, 
        {
            "name" : "HullMaterial", 
            "pbrMetallicRoughness" : {
                "roughnessFactor" : 0.8181818723678589
            }
        }
    ], 
    "meshes" : [
        {
            "name" : "Sphere", 
            "primitives" : [
                {
                    "attributes" : {
                        "NORMAL" : 2, 
                        "POSITION" : 1
                    }, 
                    "indices" : 0, 
                    "material" : 1
                }
            ]
        }, 
        {
            "name" : "Cube", 
            "primitives" : [
                {
                    "attributes" : {
                        "NORMAL" : 5, 
                        "POSITION" : 4
                    }, 
                    "indices" : 3, 
                    "material" : 1
                }
            ]
        }, 
        {
            "name" : "Sphere.001", 
            "primitives" : [
                {
                    "attributes" : {
                        "NORMAL" : 8, 
                        "POSITION" : 7
                    }, 
                    "indices" : 6, 
                    "material" : 1
                }
            ]
        }, 
        {
            "name" : "Cube.001", 
            "primitives" : [
                {
                    "attributes" : {
                        "NORMAL" : 11, 
                        "POSITION" : 10
                    }, 
                    "indices" : 9, 
                    "material" : 0
                }
            ]
        }
    ], 
    "nodes" : [
        {
            "mesh" : 3, 
            "name" : "Cube.001"
        }, 
        {
            "children" : [
                0, 
                2, 
                3
            ], 
            "mesh" : 1, 
            "name" : "Miner", 
            "rotation" : [
                0.0, 
                1.0, 
                -0.0, 
                7.549789415861596e-08
            ], 
            "scale" : [
                0.4999997615814209, 
                0.5, 
                3.4999983310699463
            ]
        }, 
        {
            "mesh" : 0, 
            "name" : "Sphere", 
            "rotation" : [
                0.0, 
                1.0, 
                -0.0, 
                -2.696353362807713e-07
            ], 
            "scale" : [
                2.0000009536743164, 
                2.0, 
                0.28571441769599915
            ], 
            "translation" : [
                -2.4000015258789062, 
                0.0, 
                -0.22857148945331573
            ]
        }, 
        {
            "mesh" : 2, 
            "name" : "Sphere.001", 
            "rotation" : [
                0.0, 
                1.0, 
                -0.0, 
                -2.696353362807713e-07
            ], 
            "scale" : [
                2.0000009536743164, 
                2.0, 
                0.28571441769599915
            ], 
            "translation" : [
                2.400001049041748, 
                0.0, 
                -0.2285715788602829
            ]
        }, 
        {
            "mesh" : 1, 
            "name" : "Miner", 
            "rotation" : [
                0.0, 
                1.0, 
                -0.0, 
                7.549789415861596e-08
            ], 
            "scale" : [
                0.4999997615814209, 
                0.5, 
                3.4999983310699463
            ]
        }
    ], 
    "scene" : 0, 
    "scenes" : [
        {
            "name" : "Scene", 
            "nodes" : [
                1
            ]
        }
    ]
}
