{
    "accessors" : [
        {
            "bufferView" : 0, 
            "componentType" : 5121, 
            "count" : 78, 
            "max" : [
                51
            ], 
            "min" : [
                0
            ], 
            "type" : "SCALAR"
        }, 
        {
            "bufferView" : 1, 
            "componentType" : 5126, 
            "count" : 52, 
            "max" : [
                1.0000001192092896, 
                1.0, 
                0.6516696810722351
            ], 
            "min" : [
                -1.0, 
                -1.0, 
                -1.0000003576278687
            ], 
            "type" : "VEC3"
        }, 
        {
            "bufferView" : 2, 
            "componentType" : 5126, 
            "count" : 52, 
            "max" : [
                0.9893363118171692, 
                0.9677765369415283, 
                0.7201271653175354
            ], 
            "min" : [
                -0.9893363118171692, 
                -0.9677765369415283, 
                -1.0
            ], 
            "type" : "VEC3"
        }, 
        {
            "bufferView" : 3, 
            "componentType" : 5121, 
            "count" : 30, 
            "max" : [
                19
            ], 
            "min" : [
                0
            ], 
            "type" : "SCALAR"
        }, 
        {
            "bufferView" : 4, 
            "componentType" : 5126, 
            "count" : 20, 
            "max" : [
                0.7253825068473816, 
                0.5559151768684387, 
                1.0000005960464478
            ], 
            "min" : [
                -0.7253828048706055, 
                -0.5559151768684387, 
                0.6516689658164978
            ], 
            "type" : "VEC3"
        }, 
        {
            "bufferView" : 5, 
            "componentType" : 5126, 
            "count" : 20, 
            "max" : [
                0.9893362522125244, 
                0.6938422322273254, 
                1.0
            ], 
            "min" : [
                -0.9893361926078796, 
                -0.6938422322273254, 
                0.14564937353134155
            ], 
            "type" : "VEC3"
        }
    ], 
    "asset" : {
        "generator" : "Khronos Blender glTF 2.0 exporter", 
        "version" : "2.0"
    }, 
    "bufferViews" : [
        {
            "buffer" : 0, 
            "byteLength" : 78, 
            "byteOffset" : 0, 
            "target" : 34963
        }, 
        {
            "buffer" : 0, 
            "byteLength" : 624, 
            "byteOffset" : 80, 
            "target" : 34962
        }, 
        {
            "buffer" : 0, 
            "byteLength" : 624, 
            "byteOffset" : 704, 
            "target" : 34962
        }, 
        {
            "buffer" : 0, 
            "byteLength" : 30, 
            "byteOffset" : 1328, 
            "target" : 34963
        }, 
        {
            "buffer" : 0, 
            "byteLength" : 240, 
            "byteOffset" : 1360, 
            "target" : 34962
        }, 
        {
            "buffer" : 0, 
            "byteLength" : 240, 
            "byteOffset" : 1600, 
            "target" : 34962
        }
    ], 
    "buffers" : [
        {
            "byteLength" : 1840, 
            "uri" : "scout.bin"
        }
    ], 
    "materials" : [
        {
            "emissiveFactor" : [
                0.0, 
                0.49688005447387695, 
                0.9918754696846008
            ], 
            "name" : "EngineMaterial", 
            "pbrMetallicRoughness" : {
                "roughnessFactor" : 0.831818163394928
            }
        }, 
        {
            "name" : "HullMaterial", 
            "pbrMetallicRoughness" : {
                "roughnessFactor" : 0.8181818723678589
            }
        }
    ], 
    "meshes" : [
        {
            "name" : "Cube", 
            "primitives" : [
                {
                    "attributes" : {
                        "NORMAL" : 2, 
                        "POSITION" : 1
                    }, 
                    "indices" : 0, 
                    "material" : 1
                }
            ]
        }, 
        {
            "name" : "Cube.001", 
            "primitives" : [
                {
                    "attributes" : {
                        "NORMAL" : 5, 
                        "POSITION" : 4
                    }, 
                    "indices" : 3, 
                    "material" : 0
                }
            ]
        }
    ], 
    "nodes" : [
        {
            "mesh" : 0, 
            "name" : "Cube", 
            "rotation" : [
                0.0, 
                1.0, 
                -0.0, 
                7.549789415861596e-08
            ], 
            "scale" : [
                0.4999997615814209, 
                0.5, 
                3.4999983310699463
            ]
        }, 
        {
            "mesh" : 1, 
            "name" : "Cube.001", 
            "rotation" : [
                0.0, 
                1.0, 
                -0.0, 
                7.549789415861596e-08
            ], 
            "scale" : [
                0.4999997615814209, 
                0.5, 
                3.4999983310699463
            ]
        }
    ], 
    "scene" : 0, 
    "scenes" : [
        {
            "name" : "Scene", 
            "nodes" : [
                1, 
                0
            ]
        }
    ]
}
